<mxfile host="app.diagrams.net" modified="2021-05-26T23:14:49.415Z" agent="5.0 (Macintosh; Intel Mac OS X 10_15_7) AppleWebKit/537.36 (KHTML, like Gecko) Chrome/90.0.4430.212 Safari/537.36" etag="m0xsOYJfcIOMlcRTQlNM" version="14.7.2" type="github">
  <diagram id="4SXwKnVfucJatnAQrbT1" name="Page-1">
    <mxGraphModel dx="262" dy="177" grid="1" gridSize="10" guides="1" tooltips="1" connect="1" arrows="1" fold="1" page="1" pageScale="1" pageWidth="850" pageHeight="1100" math="0" shadow="0">
      <root>
        <mxCell id="0" />
        <mxCell id="1" parent="0" />
        <mxCell id="Gzkfimm_N_tJ2-91IzcP-17" value="&lt;span style=&quot;color: rgb(32 , 33 , 34) ; font-family: sans-serif ; font-size: 14px ; font-style: italic ; background-color: rgb(255 , 255 , 255)&quot;&gt;θ&lt;/span&gt;" style="text;html=1;align=center;verticalAlign=middle;resizable=0;points=[];autosize=1;strokeColor=none;" vertex="1" parent="1">
          <mxGeometry x="320" y="340" width="20" height="20" as="geometry" />
        </mxCell>
        <mxCell id="Gzkfimm_N_tJ2-91IzcP-1" value="" style="endArrow=none;dashed=1;html=1;dashPattern=1 3;strokeWidth=2;" edge="1" parent="1">
          <mxGeometry width="50" height="50" relative="1" as="geometry">
            <mxPoint x="240" y="360" as="sourcePoint" />
            <mxPoint x="440" y="360" as="targetPoint" />
          </mxGeometry>
        </mxCell>
        <mxCell id="Gzkfimm_N_tJ2-91IzcP-2" value="" style="endArrow=none;html=1;" edge="1" parent="1">
          <mxGeometry width="50" height="50" relative="1" as="geometry">
            <mxPoint x="240" y="360" as="sourcePoint" />
            <mxPoint x="440" y="320" as="targetPoint" />
          </mxGeometry>
        </mxCell>
        <mxCell id="Gzkfimm_N_tJ2-91IzcP-3" value="" style="ellipse;whiteSpace=wrap;html=1;aspect=fixed;" vertex="1" parent="1">
          <mxGeometry x="370" y="290" width="40" height="40" as="geometry" />
        </mxCell>
        <mxCell id="Gzkfimm_N_tJ2-91IzcP-4" value="" style="endArrow=open;html=1;exitX=0.292;exitY=0.058;exitDx=0;exitDy=0;exitPerimeter=0;fillColor=#f8cecc;strokeColor=#b85450;endFill=0;" edge="1" parent="1" source="Gzkfimm_N_tJ2-91IzcP-3">
          <mxGeometry width="50" height="50" relative="1" as="geometry">
            <mxPoint x="330" y="380" as="sourcePoint" />
            <mxPoint x="370" y="270" as="targetPoint" />
          </mxGeometry>
        </mxCell>
        <mxCell id="Gzkfimm_N_tJ2-91IzcP-6" value="mgcos&lt;span style=&quot;color: rgb(32 , 33 , 34) ; font-family: sans-serif ; font-size: 14px ; font-style: italic ; background-color: rgb(255 , 255 , 255)&quot;&gt;θ&lt;/span&gt;" style="text;html=1;align=center;verticalAlign=middle;resizable=0;points=[];autosize=1;strokeColor=none;" vertex="1" parent="1">
          <mxGeometry x="360" y="250" width="60" height="20" as="geometry" />
        </mxCell>
        <mxCell id="Gzkfimm_N_tJ2-91IzcP-8" value="" style="endArrow=open;html=1;exitX=0.033;exitY=0.717;exitDx=0;exitDy=0;exitPerimeter=0;fillColor=#f8cecc;strokeColor=#b85450;endFill=0;" edge="1" parent="1" source="Gzkfimm_N_tJ2-91IzcP-3">
          <mxGeometry width="50" height="50" relative="1" as="geometry">
            <mxPoint x="372.67999999999995" y="314" as="sourcePoint" />
            <mxPoint x="350" y="326" as="targetPoint" />
          </mxGeometry>
        </mxCell>
        <mxCell id="Gzkfimm_N_tJ2-91IzcP-9" value="mgsin&lt;span style=&quot;color: rgb(32 , 33 , 34) ; font-family: sans-serif ; font-size: 14px ; font-style: italic ; background-color: rgb(255 , 255 , 255)&quot;&gt;θ&lt;/span&gt;" style="text;html=1;align=center;verticalAlign=middle;resizable=0;points=[];autosize=1;strokeColor=none;" vertex="1" parent="1">
          <mxGeometry x="300" y="310" width="60" height="20" as="geometry" />
        </mxCell>
        <mxCell id="Gzkfimm_N_tJ2-91IzcP-10" value="" style="curved=1;endArrow=classic;html=1;" edge="1" parent="1">
          <mxGeometry width="50" height="50" relative="1" as="geometry">
            <mxPoint x="360" y="270" as="sourcePoint" />
            <mxPoint x="340" y="310" as="targetPoint" />
            <Array as="points">
              <mxPoint x="340" y="270" />
              <mxPoint x="330" y="290" />
            </Array>
          </mxGeometry>
        </mxCell>
        <mxCell id="Gzkfimm_N_tJ2-91IzcP-11" value="+" style="text;html=1;align=center;verticalAlign=middle;resizable=0;points=[];autosize=1;strokeColor=none;" vertex="1" parent="1">
          <mxGeometry x="330" y="270" width="20" height="20" as="geometry" />
        </mxCell>
        <mxCell id="Gzkfimm_N_tJ2-91IzcP-12" value="" style="endArrow=open;html=1;exitX=0.5;exitY=1;exitDx=0;exitDy=0;fillColor=#f8cecc;strokeColor=#b85450;endFill=0;" edge="1" parent="1" source="Gzkfimm_N_tJ2-91IzcP-3">
          <mxGeometry width="50" height="50" relative="1" as="geometry">
            <mxPoint x="391.67999999999995" y="302.32000000000005" as="sourcePoint" />
            <mxPoint x="390" y="350" as="targetPoint" />
          </mxGeometry>
        </mxCell>
        <mxCell id="Gzkfimm_N_tJ2-91IzcP-13" value="mg" style="text;html=1;align=center;verticalAlign=middle;resizable=0;points=[];autosize=1;strokeColor=none;" vertex="1" parent="1">
          <mxGeometry x="390" y="330" width="30" height="20" as="geometry" />
        </mxCell>
        <mxCell id="Gzkfimm_N_tJ2-91IzcP-14" value="" style="endArrow=open;html=1;exitX=1;exitY=1;exitDx=0;exitDy=0;fillColor=#f8cecc;strokeColor=#b85450;endFill=0;" edge="1" parent="1" source="Gzkfimm_N_tJ2-91IzcP-3">
          <mxGeometry width="50" height="50" relative="1" as="geometry">
            <mxPoint x="391.67999999999995" y="302.32000000000005" as="sourcePoint" />
            <mxPoint x="420" y="302" as="targetPoint" />
          </mxGeometry>
        </mxCell>
        <mxCell id="Gzkfimm_N_tJ2-91IzcP-15" value="Ff" style="text;html=1;align=center;verticalAlign=middle;resizable=0;points=[];autosize=1;strokeColor=none;" vertex="1" parent="1">
          <mxGeometry x="410" y="300" width="30" height="20" as="geometry" />
        </mxCell>
        <mxCell id="Gzkfimm_N_tJ2-91IzcP-16" value="" style="curved=1;endArrow=none;html=1;endFill=0;" edge="1" parent="1">
          <mxGeometry width="50" height="50" relative="1" as="geometry">
            <mxPoint x="340" y="360" as="sourcePoint" />
            <mxPoint x="340" y="340" as="targetPoint" />
            <Array as="points">
              <mxPoint x="350" y="350" />
            </Array>
          </mxGeometry>
        </mxCell>
        <mxCell id="Gzkfimm_N_tJ2-91IzcP-18" value="" style="endArrow=classic;html=1;" edge="1" parent="1">
          <mxGeometry width="50" height="50" relative="1" as="geometry">
            <mxPoint x="410" y="290" as="sourcePoint" />
            <mxPoint x="460" y="280" as="targetPoint" />
          </mxGeometry>
        </mxCell>
        <mxCell id="Gzkfimm_N_tJ2-91IzcP-19" value="+x" style="text;html=1;align=center;verticalAlign=middle;resizable=0;points=[];autosize=1;strokeColor=none;" vertex="1" parent="1">
          <mxGeometry x="410" y="270" width="30" height="20" as="geometry" />
        </mxCell>
        <mxCell id="Gzkfimm_N_tJ2-91IzcP-20" value="" style="endArrow=classic;html=1;" edge="1" parent="1">
          <mxGeometry width="50" height="50" relative="1" as="geometry">
            <mxPoint x="280" y="335" as="sourcePoint" />
            <mxPoint x="240" y="345" as="targetPoint" />
          </mxGeometry>
        </mxCell>
        <mxCell id="Gzkfimm_N_tJ2-91IzcP-21" value="-x" style="text;html=1;align=center;verticalAlign=middle;resizable=0;points=[];autosize=1;strokeColor=none;" vertex="1" parent="1">
          <mxGeometry x="240" y="320" width="30" height="20" as="geometry" />
        </mxCell>
      </root>
    </mxGraphModel>
  </diagram>
</mxfile>
